v 1.245989 1.491249 -0.894913
v 1.725989 1.489975 -2.494912
v 0.145989 1.489601 -2.964912
v -0.354011 1.490859 -1.384912
v -0.354011 -0.159141 -1.383599
v -0.354011 1.490859 -1.384912
v 0.145989 1.489601 -2.964912
v 0.145989 -0.160399 -2.963598
v 1.245989 -0.158750 -0.893599
v 1.245989 1.491249 -0.894913
v -0.354011 1.490859 -1.384912
v -0.354011 -0.159141 -1.383599
v 1.725989 -0.160024 -2.493598
v 1.725989 1.489975 -2.494912
v 1.245989 1.491249 -0.894913
v 1.245989 -0.158750 -0.893599
v 0.145989 -0.160399 -2.963598
v 0.145989 1.489601 -2.964912
v 1.725989 1.489975 -2.494912
v 1.725989 -0.160024 -2.493598
vn 0.0000 1.0000 -0.0008
vn -0.9534 -0.0002 -0.3017
vn -0.2928 0.0008 0.9562
vn 0.9578 0.0002 0.2873
vn 0.2851 -0.0008 -0.9585
f 1//1 3//8 4//1
f 6//2 8//9 5//2
f 10//3 12//3 9//3
f 14//4 16//4 13//4
f 18//5 20//5 17//5
f 1//8 2//8 3//8
f 6//9 7//9 8//9
f 10//3 11//3 12//3
f 14//4 15//4 16//4
f 18//5 19//5 20//5